<svg xmlns="http://www.w3.org/2000/svg" data-name="Layer 1" viewBox="0 0 168 168"><path fill="#2d4356" d="M21.414,96.5c.483,0,1.13-.274,1.476-1.585A19.786,19.786,0,0,1,61.6,97.552a1.634,1.634,0,0,0,1.011,1.379,1.316,1.316,0,0,0,.418.069,1.333,1.333,0,0,0,.164-.014V88.8a19.443,19.443,0,0,1,.974-6.05c.017-.356.038-.7.057-1.055a9.234,9.234,0,0,1,.879-9.522c.368-2.732.822-5.292,1.335-7.714-.721-.192-1.389-.4-1.992-.616a125.32,125.32,0,0,0-2.42,27.591A21.857,21.857,0,0,0,22,91.351c.326-30.89,23.844-56.373,54.526-59.969C50.352,43.274,43.1,70.468,43.031,70.752a1,1,0,1,0,1.938.5c.071-.28,7.353-27.575,33.887-38.692-3.155,3.5-7.793,9.925-11.407,20.332a14.609,14.609,0,0,0,2.008.673C74.671,38.7,81.941,32.16,83.348,31h1.3c1.407,1.16,8.68,7.7,13.895,22.571a14.172,14.172,0,0,0,2.007-.676C96.939,42.483,92.3,36.052,89.144,32.556c26.5,11.106,33.815,38.412,33.887,38.692a1,1,0,1,0,1.938-.5c-.073-.284-7.319-27.469-33.485-39.364,30.7,3.622,54.2,29.1,54.513,59.982a21.836,21.836,0,0,0-40.021.106,125.391,125.391,0,0,0-2.419-27.628c-.6.216-1.267.427-1.992.619a121.892,121.892,0,0,1,2.408,26.912c-.186-.422-.38-.84-.59-1.248v6.1c.048.257.111.508.148.768l.014.144c.032.39.131,1.573,1.272,1.779l.233.021a1.417,1.417,0,0,0,1.354-1.423,19.781,19.781,0,0,1,38.892-1.839c.267,1.232.882,1.491,1.352,1.491h0c.35,0,1.173-.16,1.254-1.641.066-1.2.1-2.386.1-3.535,0-33.735-26.767-61.408-60.983-63H85V21a1,1,0,0,0-2,0v8H80.932C46.765,30.592,20,58.265,20,92c0,.846.015,1.686.048,2.518C20.118,96.3,21.026,96.5,21.414,96.5Z"/><path fill="#2d4356" d="M83,54a5,5,0,1,0,5,5A5,5,0,0,0,83,54Zm0,8a3,3,0,1,1,3-3A3,3,0,0,1,83,62Z"/><path fill="#2d4356" d="M95.132,63.315a22.653,22.653,0,0,0,11.143-2.91,3.633,3.633,0,0,0,1.162-5.032,3.675,3.675,0,0,0-5.035-1.156,15.529,15.529,0,0,1-7.257,1.8c-.2,0-.405,0-.607-.013a11.908,11.908,0,0,0-22.5-.02A15.83,15.83,0,0,1,65.57,54.2a3.675,3.675,0,0,0-5.009,1.176,3.634,3.634,0,0,0,1.176,5.037A22.294,22.294,0,0,0,71.97,63.3a11.725,11.725,0,0,0,.885,2.056,13.175,13.175,0,0,0-2.567,5.279,7.515,7.515,0,0,0-4.993,7.017,7.365,7.365,0,0,0,1.318,4.221A17.477,17.477,0,0,0,65.192,88.8v32.54a17.71,17.71,0,0,0,7.181,14.26,1.983,1.983,0,0,0,.628.308v-2.363a15.771,15.771,0,0,1-5.809-12.2V88.8A15.577,15.577,0,0,1,68.316,83H98.255a15.569,15.569,0,0,1,1.127,5.8v32.54c0,4.4-1.008,9.017-4.382,11.532v2.38c4.178-2.3,6.382-7.073,6.382-13.912V88.8a17.472,17.472,0,0,0-1.39-6.841.994.994,0,0,0-.022-.109,7.366,7.366,0,0,0,1.306-4.2,7.515,7.515,0,0,0-4.992-7.017,13.183,13.183,0,0,0-2.567-5.279,11.7,11.7,0,0,0,.877-2.045Q94.869,63.315,95.132,63.315Zm-.6,8.931a5.488,5.488,0,0,1,4.739,5.4A5.4,5.4,0,0,1,98.105,81H68.466a5.4,5.4,0,0,1-1.172-3.353,5.488,5.488,0,0,1,4.74-5.4,11.106,11.106,0,0,1,3.328-6.686,9.664,9.664,0,0,1-1.824-4.271c-.225.007-.452.023-.671.023a20.648,20.648,0,0,1-10.083-2.6,1.634,1.634,0,0,1-.532-2.267,1.676,1.676,0,0,1,2.289-.528,17.677,17.677,0,0,0,8.349,2.1q.34,0,.689-.015a9.89,9.89,0,0,1,19.392-.12,16.674,16.674,0,0,0,2.174.143,17.341,17.341,0,0,0,8.31-2.1,1.674,1.674,0,0,1,2.292.524,1.631,1.631,0,0,1-.531,2.267,20.634,20.634,0,0,1-10.083,2.606,20.2,20.2,0,0,1-2.093-.123,9.61,9.61,0,0,1-1.831,4.368A11.111,11.111,0,0,1,94.537,72.246Z"/><path fill="#2d4356" d="M75 87a1 1 0 0 0 0 2H93a1 1 0 1 0 0-2zM85 103H83a1 1 0 0 0 0 2h2a1 1 0 1 0 0-2zM85 107H83a1 1 0 0 0 0 2h2a1 1 0 1 0 0-2zM85 111H83a1 1 0 0 0 0 2h2a1 1 0 1 0 0-2zM85 115H83a1 1 0 0 0 0 2h2a1 1 0 1 0 0-2zM85 127H83a1 1 0 0 0 0 2h2a1 1 0 1 0 0-2zM85 131H83a1 1 0 0 0 0 2h2a1 1 0 1 0 0-2zM85 135H83a1 1 0 0 0 0 2h2a1 1 0 1 0 0-2zM85 139H83a1 1 0 0 0 0 2h2a1 1 0 1 0 0-2zM159 11.5a2 2 0 1 0-2-2A2 2 0 0 0 159 11.5zm0-3a1 1 0 1 1-1 1A1 1 0 0 1 159 8.5zM79 14.5a3 3 0 1 0-3-3A3 3 0 0 0 79 14.5zM79 10a1.5 1.5 0 1 1-1.5 1.5A1.5 1.5 0 0 1 79 10zM153 71.625a1.875 1.875 0 1 0 1.875 1.875A1.877 1.877 0 0 0 153 71.625zm0 2.813a.938.938 0 1 1 .937-.937A.938.938 0 0 1 153 74.438zM92 7.5a2 2 0 1 0-2-2A2 2 0 0 0 92 7.5zm0-3a1 1 0 1 1-1 1A1 1 0 0 1 92 4.5zM27 51.5a2 2 0 1 0-2-2A2 2 0 0 0 27 51.5zm0-3a1 1 0 1 1-1 1A1 1 0 0 1 27 48.5z"/><path fill="#2d4356" d="M152 146.5H89.045A8.63 8.63 0 0 0 93 139.295v-34.59a9 9 0 0 0-18 0v34.59a8.629 8.629 0 0 0 3.956 7.205H16a1 1 0 0 0 0 2H152a1 1 0 0 0 0-2zM84 146a6.857 6.857 0 0 1-7-6.705v-34.59a7.006 7.006 0 0 1 14 0v34.59A6.856 6.856 0 0 1 84 146zM11 146.5H6a1 1 0 0 0 0 2h5a1 1 0 0 0 0-2z"/><circle cx="1" cy="147.5" r="1" fill="#2d4356"/><path fill="#2d4356" d="M162,146.5h-5a1,1,0,0,0,0,2h5a1,1,0,0,0,0-2Z"/><circle cx="167" cy="147.5" r="1" fill="#2d4356"/><circle cx="43" cy="75" r="1" fill="#0bceb2"/><circle cx="125" cy="75" r="1" fill="#0bceb2"/><path fill="#0bceb2" d="M79,93H89a1,1,0,1,0,0-2H79a1,1,0,0,0,0,2Z"/><circle cx="84" cy="74" r="1" fill="#0bceb2"/><path fill="#0bceb2" d="M85 119H83a1 1 0 0 0 0 2h2a1 1 0 1 0 0-2zM85 123H83a1 1 0 0 0 0 2h2a1 1 0 1 0 0-2z"/><polygon fill="#0bceb2" points="5.583 71.511 7.07 69.556 6.131 69.024 5.177 71.214 5.145 71.214 4.175 69.039 3.22 69.587 4.691 71.496 4.691 71.527 2.391 71.23 2.391 72.294 4.707 71.997 4.707 72.028 3.22 73.936 4.112 74.5 5.13 72.294 5.16 72.294 6.099 74.484 7.085 73.921 5.583 72.043 5.583 72.012 7.945 72.294 7.945 71.23 5.583 71.542 5.583 71.511"/><polygon fill="#0bceb2" points="15.281 8.269 16.137 7.143 15.597 6.837 15.047 8.098 15.029 8.098 14.471 6.845 13.92 7.161 14.768 8.26 14.768 8.278 13.443 8.107 13.443 8.72 14.777 8.549 14.777 8.567 13.92 9.666 14.434 9.99 15.02 8.72 15.038 8.72 15.578 9.981 16.146 9.657 15.281 8.575 15.281 8.557 16.641 8.72 16.641 8.107 15.281 8.287 15.281 8.269"/><polygon fill="#0bceb2" points="148 35.213 148 34.17 145.683 34.477 145.683 34.446 147.142 32.528 146.221 32.006 145.285 34.154 145.253 34.154 144.302 32.021 143.365 32.559 144.808 34.431 144.808 34.462 142.552 34.17 142.552 35.213 144.823 34.922 144.823 34.953 143.365 36.825 144.24 37.378 145.238 35.213 145.268 35.213 146.189 37.362 147.156 36.81 145.683 34.968 145.683 34.937 148 35.213"/><polygon fill="#0bceb2" points="51.702 17.523 50.444 19.138 51.198 19.615 52.06 17.748 52.085 17.748 52.88 19.601 53.714 19.125 52.443 17.536 52.443 17.509 54.442 17.748 54.442 16.848 52.443 17.112 52.443 17.086 53.701 15.431 52.907 14.981 52.099 16.834 52.073 16.834 51.252 14.994 50.444 15.458 51.689 17.073 51.689 17.099 49.742 16.848 49.742 17.748 51.702 17.496 51.702 17.523"/><polygon fill="#0bceb2" points="118.443 18.086 119.701 16.431 118.907 15.981 118.099 17.834 118.073 17.834 117.252 15.994 116.444 16.458 117.689 18.073 117.689 18.099 115.742 17.848 115.742 18.748 117.702 18.496 117.702 18.523 116.444 20.138 117.198 20.615 118.06 18.748 118.085 18.748 118.88 20.601 119.714 20.125 118.443 18.536 118.443 18.509 120.442 18.748 120.442 17.848 118.443 18.112 118.443 18.086"/><path fill="#0bceb2" d="M105 152.5H63a1 1 0 0 0 0 2H81v2H71a1 1 0 0 0 0 2H98a1 1 0 0 0 0-2H87v-2h18a1 1 0 0 0 0-2zM119 152.5H109a1 1 0 0 0 0 2h10a1 1 0 0 0 0-2zM59 152.5H49a1 1 0 0 0 0 2H59a1 1 0 0 0 0-2z"/></svg>